<?xml version="1.0" standalone="no"?>
<!DOCTYPE svg PUBLIC "-//W3C//DTD SVG 20010904//EN"
 "http://www.w3.org/TR/2001/REC-SVG-20010904/DTD/svg10.dtd">
<svg version="1.0" xmlns="http://www.w3.org/2000/svg"
 width="4687.000000pt" height="4687.000000pt" viewBox="0 0 4687.000000 4687.000000"
 preserveAspectRatio="xMidYMid meet">
<metadata>
Created by potrace 1.14, written by Peter Selinger 2001-2017
</metadata>
<g transform="translate(0.000000,4687.000000) scale(0.100000,-0.100000)"
fill="#000000" stroke="none">
<path d="M23167 43954 c-1 -1 -128 -5 -282 -9 -294 -8 -298 -8 -545 -20 -241
-12 -421 -25 -710 -50 -30 -3 -84 -8 -120 -11 -36 -3 -76 -7 -90 -9 -14 -2
-59 -6 -100 -10 -41 -4 -86 -8 -100 -10 -14 -2 -50 -6 -80 -10 -30 -3 -73 -8
-95 -11 -82 -10 -112 -13 -175 -19 -36 -3 -72 -8 -80 -10 -8 -2 -35 -7 -60
-10 -25 -3 -76 -10 -115 -15 -38 -5 -88 -12 -110 -15 -23 -3 -50 -7 -60 -9
-11 -2 -45 -7 -75 -11 -30 -4 -64 -9 -75 -11 -22 -5 -61 -11 -120 -19 -52 -7
-296 -50 -460 -80 -71 -13 -143 -27 -160 -29 -58 -10 -510 -105 -525 -110 -8
-3 -28 -7 -45 -9 -16 -3 -48 -9 -70 -15 -22 -6 -51 -13 -65 -15 -117 -21 -915
-229 -1140 -297 -52 -16 -149 -45 -215 -65 -66 -21 -133 -41 -150 -45 -91 -25
-799 -263 -860 -289 -11 -5 -49 -19 -85 -31 -36 -13 -78 -28 -95 -35 -16 -7
-64 -25 -105 -40 -106 -39 -499 -193 -535 -210 -16 -7 -106 -46 -200 -85 -93
-40 -183 -78 -200 -85 -16 -8 -77 -35 -135 -60 -58 -26 -157 -71 -220 -100
-63 -29 -144 -66 -180 -83 -184 -84 -799 -394 -980 -494 -71 -39 -131 -72
-230 -126 -218 -119 -655 -376 -910 -537 -85 -53 -164 -102 -174 -109 -60 -34
-731 -486 -841 -565 -71 -52 -152 -110 -180 -129 -254 -179 -864 -656 -1170
-915 -160 -135 -490 -423 -535 -467 -14 -14 -60 -55 -101 -92 -310 -278 -896
-858 -1195 -1184 -16 -17 -69 -75 -119 -129 -49 -54 -94 -103 -100 -109 -5 -6
-48 -54 -94 -106 -46 -52 -95 -108 -110 -125 -15 -16 -58 -66 -95 -110 -38
-44 -90 -105 -117 -135 -165 -191 -647 -796 -764 -960 -22 -30 -42 -57 -45
-60 -3 -3 -60 -79 -126 -170 -106 -146 -169 -235 -267 -375 -41 -59 -415 -620
-463 -695 -23 -36 -94 -150 -158 -255 -64 -104 -121 -197 -126 -205 -5 -8 -20
-32 -32 -54 -13 -21 -27 -46 -33 -55 -5 -9 -35 -59 -65 -111 -30 -52 -59 -103
-65 -112 -16 -28 -130 -229 -160 -283 -15 -27 -40 -72 -55 -100 -191 -345
-479 -919 -643 -1280 -80 -177 -99 -218 -139 -310 -22 -49 -46 -103 -53 -120
-29 -63 -109 -254 -146 -350 -22 -55 -44 -109 -49 -120 -20 -41 -130 -328
-204 -530 -43 -115 -80 -217 -83 -225 -4 -8 -7 -17 -8 -20 -1 -3 -5 -12 -8
-20 -12 -28 -217 -644 -222 -664 -2 -12 -23 -79 -46 -151 -23 -71 -52 -168
-66 -215 -13 -47 -31 -107 -39 -135 -8 -27 -17 -57 -19 -66 -2 -9 -28 -106
-59 -215 -68 -246 -224 -880 -241 -983 -3 -19 -8 -37 -10 -41 -2 -4 -7 -22
-10 -41 -3 -19 -14 -74 -25 -124 -11 -49 -21 -99 -23 -110 -2 -11 -7 -31 -10
-45 -6 -22 -40 -204 -53 -275 -2 -14 -6 -37 -9 -52 -3 -16 -10 -55 -16 -88
-15 -92 -17 -100 -34 -185 -7 -35 -12 -67 -25 -157 -6 -43 -13 -89 -16 -103
-6 -34 -32 -206 -38 -250 -3 -19 -11 -84 -20 -145 -8 -60 -17 -132 -21 -160
-3 -27 -7 -61 -10 -75 -2 -14 -7 -47 -10 -75 -3 -27 -8 -68 -10 -90 -3 -22 -8
-62 -11 -90 -2 -27 -6 -66 -9 -85 -6 -64 -15 -149 -20 -207 -3 -32 -8 -78 -10
-103 -3 -25 -7 -72 -10 -105 -3 -33 -7 -89 -10 -125 -9 -98 -14 -165 -21 -270
-3 -52 -7 -115 -9 -140 -2 -25 -6 -112 -10 -195 -4 -82 -9 -172 -10 -200 -22
-415 -22 -1330 0 -1745 2 -47 7 -139 10 -205 7 -146 20 -346 29 -470 3 -33 8
-96 11 -140 4 -44 8 -96 10 -115 2 -19 7 -66 10 -105 3 -38 8 -88 10 -110 2
-22 7 -67 10 -100 3 -33 8 -76 10 -95 3 -19 7 -57 10 -85 3 -27 8 -66 10 -85
3 -19 11 -93 20 -165 13 -108 32 -253 50 -375 2 -14 9 -61 15 -105 6 -44 13
-91 16 -105 2 -14 9 -56 14 -95 6 -38 13 -77 15 -85 3 -8 7 -31 9 -50 5 -37
10 -68 27 -162 5 -32 12 -70 15 -85 14 -79 56 -304 64 -343 5 -25 12 -56 14
-70 12 -68 47 -233 50 -239 2 -3 7 -22 10 -41 3 -20 19 -99 36 -175 39 -176
30 -136 90 -380 28 -115 53 -217 55 -225 24 -109 172 -632 260 -920 58 -193
234 -728 244 -745 3 -5 6 -14 7 -20 10 -50 364 -975 436 -1135 11 -25 26 -58
33 -75 7 -16 29 -67 49 -112 20 -45 36 -84 36 -87 0 -4 32 -77 90 -201 15 -33
38 -82 50 -110 33 -73 89 -193 156 -335 99 -210 401 -804 424 -835 4 -5 30
-53 58 -105 27 -52 62 -115 76 -140 14 -25 29 -52 33 -60 8 -17 120 -213 205
-360 31 -52 92 -155 137 -229 44 -74 81 -136 81 -138 0 -2 5 -9 10 -16 6 -7
78 -120 161 -252 368 -585 819 -1219 1278 -1795 102 -127 150 -186 310 -379
70 -85 224 -266 230 -271 3 -3 49 -54 101 -115 52 -60 99 -115 105 -121 25
-27 192 -210 213 -233 20 -22 92 -99 286 -305 202 -216 703 -705 946 -926 51
-47 118 -107 148 -135 30 -27 63 -57 74 -66 10 -9 50 -45 88 -79 87 -78 73
-66 294 -254 45 -37 92 -78 106 -90 14 -11 48 -39 75 -61 28 -22 55 -45 60
-51 12 -12 370 -298 495 -395 589 -455 1222 -891 1863 -1283 249 -152 650
-386 797 -463 25 -13 52 -28 60 -33 73 -48 877 -457 1115 -567 242 -112 306
-141 470 -213 66 -29 138 -60 160 -70 67 -30 286 -120 365 -152 41 -16 89 -36
105 -43 17 -7 80 -32 140 -55 61 -23 121 -46 134 -51 102 -41 477 -179 487
-179 2 0 4 373 4 829 l0 828 -132 53 c-217 86 -420 170 -461 191 -21 10 -42
19 -47 19 -5 0 -37 13 -72 29 -35 16 -106 48 -158 71 -52 23 -122 55 -155 70
-33 15 -89 41 -125 58 -255 117 -914 446 -965 482 -5 4 -55 31 -110 60 -55 29
-142 77 -193 107 -52 29 -97 53 -102 53 -5 0 -10 3 -12 8 -1 4 -28 20 -58 36
-92 49 -534 315 -728 439 -435 278 -971 650 -1310 911 -132 101 -353 274 -377
294 -11 9 -67 55 -125 101 -123 100 -351 290 -365 305 -5 6 -37 33 -70 61 -33
27 -62 52 -65 55 -3 3 -41 37 -85 75 -43 39 -87 77 -95 85 -9 8 -52 47 -96 86
-359 322 -891 851 -1235 1228 -30 32 -65 71 -79 86 -71 77 -83 91 -366 415
-46 54 -67 78 -125 150 -9 11 -54 65 -100 120 -46 55 -96 116 -110 135 -15 19
-35 44 -45 55 -11 11 -32 38 -49 59 -16 22 -46 60 -66 85 -191 246 -475 626
-579 777 -8 12 -70 100 -136 195 -110 158 -164 238 -349 524 -46 70 -183 292
-294 475 -49 81 -208 352 -243 415 -25 44 -54 96 -65 115 -197 345 -614 1178
-750 1500 -8 19 -18 42 -22 50 -5 8 -41 92 -80 185 -40 94 -79 184 -86 200
-57 129 -274 692 -355 920 -158 447 -334 1010 -440 1410 -16 61 -36 137 -45
170 -9 33 -18 68 -20 78 -2 10 -7 27 -10 37 -3 10 -8 28 -10 39 -8 36 -12 53
-35 146 -12 50 -23 97 -25 105 -2 8 -21 94 -43 190 -38 165 -46 203 -57 258
-2 13 -6 31 -9 40 -3 9 -8 33 -11 52 -3 19 -8 42 -10 50 -2 8 -7 29 -9 45 -6
33 -22 116 -31 155 -3 14 -7 40 -10 59 -2 18 -7 41 -9 50 -3 9 -8 32 -11 51
-3 19 -12 71 -20 115 -8 44 -17 98 -20 120 -4 22 -8 51 -11 65 -15 90 -34 215
-39 256 -3 27 -8 56 -10 64 -2 8 -7 35 -10 60 -3 25 -10 72 -15 105 -5 33 -12
84 -15 114 -4 30 -8 63 -10 73 -2 11 -7 46 -10 79 -4 33 -8 68 -10 78 -2 9 -6
48 -10 86 -3 39 -8 84 -11 100 -2 17 -6 53 -9 80 -10 102 -15 156 -21 213 -3
31 -8 71 -9 87 -2 17 -6 71 -9 120 -4 50 -8 113 -11 140 -60 690 -72 1746 -30
2470 19 322 25 414 30 462 3 23 7 77 10 120 3 43 7 96 10 118 2 22 6 69 10
105 3 36 8 81 10 100 2 19 7 64 10 100 4 36 9 81 11 100 2 19 6 58 9 85 7 59
14 116 20 165 3 19 7 53 10 75 2 22 6 56 9 75 9 62 27 194 32 230 3 19 9 60
14 90 5 30 11 71 14 90 6 44 38 239 52 320 3 19 8 46 10 60 3 14 13 72 24 130
10 58 22 119 25 135 2 17 7 39 9 50 23 106 39 183 41 200 5 33 24 126 34 164
6 20 12 50 14 66 12 75 140 596 231 945 30 113 146 508 188 640 16 52 40 129
53 170 156 502 466 1312 723 1890 206 465 499 1052 730 1465 30 55 63 114 72
130 58 103 221 382 261 448 27 43 49 81 49 84 0 4 11 21 25 39 14 18 25 35 25
39 0 3 9 18 19 33 15 22 98 152 174 276 29 47 419 631 438 655 11 14 95 130
186 256 140 194 226 311 266 360 4 6 60 78 124 160 111 143 254 322 299 375
12 14 70 84 129 155 88 106 349 407 390 451 5 6 42 46 81 90 40 43 84 93 99
109 325 357 880 907 1259 1249 44 39 90 80 102 91 28 26 53 48 194 170 106 92
146 126 265 225 23 19 66 55 95 80 29 25 63 51 74 59 12 8 23 18 26 21 3 4 75
62 160 129 85 68 162 128 171 135 322 257 1041 764 1448 1020 163 103 542 336
546 336 2 0 39 21 82 47 109 65 245 143 249 143 1 0 44 24 96 53 51 30 136 77
188 105 52 27 151 80 220 116 69 37 251 129 405 205 239 119 351 171 683 322
41 19 108 48 167 73 17 7 41 18 55 24 14 6 48 20 75 32 28 12 59 25 70 30 11
5 61 25 110 45 50 21 115 47 145 60 276 116 878 334 1295 468 203 65 637 195
675 201 3 1 41 11 85 24 159 44 270 74 285 77 8 2 87 21 175 43 243 60 649
152 775 175 14 3 97 19 185 36 262 50 257 49 475 86 124 21 174 28 332 51 45
6 81 12 113 18 17 2 55 8 85 11 30 3 62 8 70 10 8 2 42 6 75 10 33 3 71 8 85
10 29 4 209 26 260 31 71 7 146 15 185 19 22 2 72 7 110 10 39 4 84 8 100 10
17 2 66 7 110 10 44 3 100 7 125 9 25 2 86 7 135 10 50 4 117 9 150 11 33 3
112 7 175 10 63 3 162 7 220 10 403 20 1161 20 1590 0 74 -3 180 -8 235 -11
55 -2 129 -6 165 -9 36 -3 98 -7 138 -10 160 -11 229 -16 267 -20 22 -2 72 -7
110 -10 39 -3 90 -7 115 -10 25 -3 68 -7 95 -10 28 -2 77 -7 110 -11 33 -3 71
-7 85 -9 14 -1 43 -5 65 -8 22 -4 67 -9 100 -12 33 -3 69 -8 80 -10 11 -3 45
-7 75 -10 30 -3 64 -7 75 -9 11 -2 47 -7 80 -11 32 -4 66 -8 75 -10 8 -1 38
-6 65 -10 52 -6 281 -42 325 -49 14 -3 79 -14 145 -25 66 -12 131 -23 145 -25
14 -3 41 -7 60 -10 44 -7 63 -11 245 -47 83 -17 161 -32 175 -35 14 -2 45 -9
70 -14 56 -13 88 -20 120 -26 14 -2 39 -7 55 -11 17 -4 35 -8 40 -9 134 -29
551 -129 600 -144 17 -5 93 -26 170 -45 190 -49 629 -176 800 -231 77 -25 166
-54 197 -64 l57 -18 143 172 c168 201 469 506 655 663 121 102 345 274 435
333 21 14 38 27 38 31 0 5 -21 13 -220 86 -290 106 -736 255 -965 324 -33 10
-91 27 -130 39 -38 12 -77 23 -85 25 -8 2 -94 27 -190 55 -96 28 -260 73 -365
100 -104 27 -206 54 -225 60 -35 10 -187 48 -225 56 -11 2 -29 6 -40 8 -11 2
-67 16 -125 30 -87 21 -284 65 -364 82 -11 2 -65 13 -120 25 -56 11 -112 23
-126 25 -14 3 -80 16 -147 29 -68 14 -140 27 -160 30 -21 3 -58 10 -83 15 -46
10 -391 68 -445 76 -16 2 -41 6 -55 9 -14 3 -47 7 -75 10 -27 3 -57 8 -65 10
-8 2 -40 7 -70 10 -30 4 -57 8 -60 10 -3 1 -36 6 -75 10 -38 4 -72 8 -75 10
-3 1 -36 6 -75 9 -38 4 -77 9 -85 11 -8 2 -42 6 -75 10 -33 3 -73 8 -90 10
-16 2 -55 7 -86 10 -31 3 -65 7 -75 9 -11 2 -55 7 -99 10 -44 4 -93 9 -110 11
-26 3 -97 10 -220 20 -16 2 -68 6 -115 9 -47 4 -105 9 -130 11 -42 4 -168 13
-285 20 -27 2 -111 6 -185 10 -74 3 -164 8 -200 10 -192 11 -1144 26 -1153 19z"/>
<path d="M22968 41345 c-2 -1 -91 -6 -198 -9 -107 -4 -233 -9 -280 -11 -147
-8 -267 -15 -322 -20 -29 -2 -93 -7 -143 -10 -49 -4 -106 -8 -125 -10 -19 -2
-69 -6 -110 -9 -41 -4 -91 -8 -110 -11 -19 -2 -64 -7 -100 -10 -36 -3 -72 -8
-80 -10 -8 -2 -50 -6 -93 -10 -43 -4 -88 -8 -100 -10 -12 -2 -49 -6 -82 -10
-33 -3 -67 -8 -75 -10 -8 -2 -40 -6 -70 -9 -30 -3 -64 -8 -75 -10 -11 -2 -45
-7 -75 -10 -30 -4 -66 -8 -80 -11 -14 -2 -115 -18 -225 -35 -110 -16 -222 -35
-250 -40 -27 -5 -63 -12 -80 -15 -16 -3 -41 -7 -55 -10 -14 -3 -74 -14 -135
-25 -123 -22 -147 -27 -190 -36 -16 -4 -37 -8 -45 -9 -8 -1 -28 -5 -45 -8 -16
-4 -39 -9 -50 -11 -277 -55 -673 -150 -1030 -246 -38 -11 -81 -22 -95 -26
-452 -120 -1186 -363 -1695 -561 -147 -57 -567 -229 -594 -243 -26 -13 -89
-40 -94 -40 -3 0 -41 -16 -84 -36 -43 -20 -121 -56 -173 -79 -516 -232 -1109
-541 -1646 -856 -735 -431 -1452 -926 -2129 -1468 -126 -101 -232 -187 -235
-190 -3 -4 -30 -26 -60 -51 -30 -25 -60 -49 -66 -55 -6 -5 -33 -29 -60 -51
-92 -79 -185 -159 -272 -238 -30 -26 -68 -60 -85 -75 -40 -35 -66 -59 -193
-176 -371 -342 -862 -842 -1189 -1210 -44 -49 -82 -92 -85 -95 -3 -3 -32 -36
-65 -75 -33 -38 -71 -83 -86 -100 -75 -85 -108 -124 -142 -167 -21 -26 -43
-53 -50 -60 -7 -7 -30 -35 -52 -63 -22 -27 -43 -52 -46 -55 -6 -5 -255 -319
-294 -371 -11 -14 -60 -79 -110 -145 -49 -65 -95 -125 -102 -134 -7 -8 -46
-62 -88 -120 -76 -106 -90 -125 -169 -235 -95 -134 -266 -387 -266 -395 0 -5
-3 -10 -8 -12 -10 -4 -232 -346 -232 -358 0 -6 -4 -10 -8 -10 -5 0 -15 -12
-22 -27 -8 -16 -22 -39 -31 -53 -45 -68 -179 -293 -179 -301 0 -5 -4 -9 -10
-9 -5 0 -10 -4 -10 -9 0 -4 -35 -68 -78 -142 -126 -215 -233 -408 -374 -674
-100 -188 -418 -835 -418 -850 0 -2 -17 -41 -39 -87 -165 -355 -403 -942 -536
-1318 -20 -58 -39 -112 -42 -120 -3 -8 -7 -19 -9 -25 -2 -5 -40 -118 -84 -250
-95 -283 -255 -803 -275 -899 -3 -10 -15 -58 -29 -105 -28 -99 -116 -444 -123
-481 -2 -14 -13 -61 -24 -105 -11 -44 -26 -111 -35 -150 -28 -133 -103 -492
-108 -521 -3 -16 -8 -40 -11 -54 -12 -59 -81 -462 -90 -525 -3 -22 -10 -62
-15 -90 -5 -27 -16 -102 -25 -165 -9 -63 -18 -126 -20 -140 -2 -14 -6 -50 -10
-80 -3 -30 -8 -66 -10 -80 -2 -14 -7 -50 -10 -80 -4 -30 -8 -66 -10 -80 -4
-24 -9 -77 -20 -182 -3 -29 -8 -69 -10 -88 -2 -19 -7 -64 -10 -100 -3 -36 -8
-85 -10 -110 -18 -199 -32 -376 -40 -535 -4 -60 -8 -132 -10 -160 -26 -334
-26 -1472 0 -1890 1 -27 6 -104 10 -169 3 -66 8 -145 11 -175 17 -237 33 -421
39 -461 2 -14 6 -56 10 -95 9 -102 22 -222 40 -365 3 -19 7 -59 11 -88 3 -29
7 -61 9 -70 2 -10 6 -45 10 -77 4 -33 9 -67 10 -75 2 -8 6 -40 10 -70 4 -30 9
-64 11 -75 2 -11 7 -40 10 -65 3 -25 7 -52 9 -60 2 -8 7 -35 10 -60 5 -36 31
-195 49 -295 8 -42 26 -141 31 -165 3 -14 9 -50 15 -80 6 -30 13 -66 15 -80 3
-14 10 -47 15 -75 14 -77 18 -97 57 -269 19 -89 39 -181 44 -206 12 -57 137
-565 149 -605 13 -42 81 -287 85 -305 2 -8 17 -62 35 -120 17 -58 33 -109 34
-115 2 -5 5 -17 8 -25 3 -8 16 -49 28 -90 48 -165 262 -804 289 -865 5 -11 35
-90 66 -175 118 -318 330 -831 444 -1073 22 -48 41 -89 41 -91 0 -6 140 -299
246 -512 131 -265 308 -596 457 -858 32 -54 57 -101 57 -103 0 -2 13 -24 30
-48 16 -24 30 -46 30 -48 0 -7 236 -398 308 -510 150 -234 455 -689 546 -814
17 -23 42 -58 56 -78 14 -20 30 -42 35 -48 6 -7 21 -28 35 -47 64 -94 370
-494 504 -660 34 -41 66 -82 73 -90 6 -8 40 -49 75 -91 35 -41 83 -99 108
-129 103 -124 326 -381 376 -434 5 -6 34 -38 64 -71 351 -394 922 -962 1320
-1315 58 -51 123 -109 145 -129 22 -20 128 -111 235 -202 164 -138 239 -201
420 -346 203 -163 614 -473 799 -602 283 -199 710 -483 881 -587 36 -21 67
-41 70 -44 10 -11 473 -283 640 -377 119 -67 290 -160 465 -253 92 -49 613
-310 619 -310 2 0 57 -25 122 -56 194 -92 724 -324 740 -324 2 0 4 382 4 849
l0 850 -21 6 c-48 15 -656 314 -818 402 -74 40 -358 196 -411 226 -719 402
-1643 1033 -2260 1545 -36 30 -74 61 -85 71 -83 67 -328 274 -345 291 -3 3
-38 34 -79 70 -41 36 -84 74 -96 85 -11 11 -67 63 -125 115 -172 157 -273 254
-499 481 -279 279 -439 447 -646 680 -597 672 -1064 1287 -1577 2079 -148 229
-416 680 -538 905 -18 33 -46 85 -63 115 -62 111 -160 300 -263 510 -58 118
-115 232 -125 253 -16 31 -119 258 -224 492 -7 17 -37 86 -65 155 -29 69 -59
141 -67 160 -8 19 -19 44 -24 55 -136 323 -403 1081 -504 1435 -7 25 -33 115
-58 200 -46 160 -108 384 -111 404 -1 6 -5 20 -9 31 -3 11 -8 31 -11 45 -3 14
-9 41 -14 60 -30 113 -127 538 -138 600 -2 14 -8 43 -14 65 -17 71 -80 405
-86 460 -2 17 -8 50 -13 75 -15 69 -53 313 -76 480 -3 25 -10 72 -15 105 -5
33 -12 87 -15 120 -3 33 -8 71 -10 85 -10 64 -16 109 -19 150 -12 132 -19 197
-21 210 -2 8 -6 51 -10 95 -4 44 -9 96 -10 115 -2 19 -7 76 -10 125 -4 50 -8
109 -10 132 -2 23 -7 89 -10 145 -3 57 -8 130 -10 163 -25 383 -25 1286 0
1735 12 214 29 459 40 570 2 19 6 73 10 119 4 46 8 91 10 100 1 9 6 50 10 91
3 41 8 89 10 105 2 17 7 56 10 87 3 31 7 65 9 75 3 16 12 88 21 163 4 37 16
121 21 150 2 14 8 59 14 100 6 41 12 86 15 100 2 14 20 122 40 240 29 176 63
354 131 690 3 14 10 45 15 70 6 25 13 56 15 70 3 13 14 63 25 110 11 47 22 92
24 100 2 8 17 71 35 140 17 69 33 136 36 150 3 14 12 48 20 76 8 28 16 60 18
70 3 11 30 109 61 219 31 110 61 214 65 230 5 17 14 48 21 70 7 22 13 42 14
45 31 132 351 1048 425 1215 10 22 21 51 25 65 4 14 16 43 25 65 10 22 52 121
93 220 42 99 86 203 98 230 13 28 24 52 24 55 3 10 38 86 86 188 27 57 49 106
49 109 0 9 298 606 350 703 29 52 70 129 93 170 22 41 59 109 82 150 24 41 51
91 62 110 29 53 93 163 103 180 5 8 55 92 111 185 273 456 584 917 921 1367
81 108 154 205 162 215 9 10 54 68 102 128 80 101 125 158 164 205 112 135
316 376 356 420 17 19 75 85 129 145 54 61 120 133 145 160 26 28 67 72 91 99
24 27 179 185 344 350 291 292 432 427 681 651 48 44 164 146 239 210 120 104
127 109 225 190 47 38 87 72 90 75 3 3 25 21 50 40 25 19 54 43 65 53 11 10
53 43 95 75 41 31 77 59 80 62 3 3 52 42 110 86 58 43 107 81 110 84 55 58
812 581 1162 801 78 50 443 269 518 311 310 175 354 200 534 295 131 69 603
303 701 348 244 111 397 180 480 215 158 67 587 240 597 240 4 0 27 9 51 19
102 47 680 246 977 336 289 88 340 103 423 124 43 11 81 22 85 25 5 3 19 7 33
10 13 2 112 27 219 55 107 27 209 52 227 55 18 4 42 10 55 15 13 5 25 8 28 8
5 0 63 12 200 43 47 11 97 22 113 25 53 10 82 16 117 25 19 5 51 11 70 14 19
3 46 8 60 11 25 6 146 29 205 40 126 23 501 85 545 90 30 3 62 8 70 10 8 2 35
7 60 10 25 3 56 8 70 10 14 2 50 7 80 10 30 3 66 8 80 10 14 3 45 7 70 9 25 3
104 12 175 20 125 15 178 20 303 31 154 14 171 15 357 30 28 2 102 7 165 10
63 4 135 8 160 10 303 24 1475 24 1725 0 22 -2 92 -6 155 -9 107 -5 159 -9
300 -21 129 -12 168 -15 227 -19 34 -3 81 -8 105 -10 24 -3 68 -8 98 -11 74
-7 148 -15 185 -20 17 -2 89 -11 160 -20 120 -14 430 -58 500 -70 17 -3 59
-10 95 -15 84 -14 173 -29 230 -40 25 -5 61 -11 80 -14 40 -7 65 -12 135 -26
28 -6 61 -12 75 -15 93 -18 247 -50 315 -65 45 -11 92 -21 105 -24 14 -3 57
-12 95 -21 39 -9 79 -18 90 -20 237 -54 917 -240 1029 -282 21 -8 42 -10 47
-6 4 4 17 59 28 120 17 87 65 291 105 438 29 111 118 371 175 513 54 136 160
374 173 389 7 9 6 14 -3 17 -111 35 -372 113 -439 131 -8 3 -49 14 -90 26 -69
19 -173 47 -430 114 -81 21 -238 59 -290 70 -14 3 -99 23 -130 30 -8 2 -134
29 -280 59 -146 31 -285 60 -310 66 -25 5 -61 12 -80 15 -19 3 -46 7 -60 10
-14 3 -38 7 -55 10 -30 5 -57 10 -105 20 -14 3 -43 7 -65 10 -22 3 -62 10 -90
16 -27 5 -68 11 -90 14 -22 2 -49 6 -60 9 -11 2 -40 7 -65 10 -25 3 -54 8 -65
10 -11 2 -42 7 -70 10 -69 8 -172 23 -215 31 -14 2 -52 7 -85 10 -63 7 -108
12 -165 20 -87 11 -474 51 -595 60 -38 3 -95 8 -125 10 -30 3 -91 7 -135 10
-44 3 -107 7 -140 10 -33 2 -118 7 -190 10 -71 4 -166 8 -210 11 -88 6 -1191
14 -1197 9z"/>
<path d="M22909 38635 c-2 -1 -78 -6 -169 -10 -91 -3 -187 -8 -215 -10 -217
-14 -264 -17 -297 -20 -20 -2 -71 -7 -115 -10 -43 -3 -94 -7 -113 -10 -33 -4
-84 -9 -210 -21 -52 -5 -93 -9 -170 -19 -19 -3 -73 -9 -120 -15 -105 -13 -146
-18 -185 -24 -16 -3 -52 -8 -80 -11 -27 -3 -61 -8 -75 -10 -14 -3 -42 -8 -64
-11 -21 -3 -48 -8 -60 -10 -11 -2 -41 -7 -66 -10 -25 -3 -54 -8 -65 -10 -11
-3 -36 -7 -55 -10 -19 -3 -46 -7 -60 -10 -14 -2 -41 -7 -60 -10 -19 -3 -42 -7
-50 -9 -8 -2 -31 -7 -50 -10 -50 -8 -218 -42 -355 -70 -71 -15 -443 -99 -487
-111 -10 -2 -26 -6 -35 -8 -10 -2 -56 -14 -103 -26 -47 -12 -92 -24 -100 -26
-45 -11 -136 -35 -220 -59 -52 -15 -102 -29 -110 -31 -32 -8 -221 -65 -325
-98 -60 -19 -153 -48 -205 -64 -307 -97 -1000 -358 -1255 -472 -27 -12 -63
-28 -80 -35 -254 -108 -849 -394 -1050 -505 -27 -15 -90 -49 -140 -75 -49 -27
-103 -57 -120 -67 -16 -10 -37 -21 -45 -25 -80 -37 -637 -372 -820 -493 -222
-146 -455 -304 -555 -375 -27 -20 -61 -44 -75 -53 -14 -9 -30 -21 -36 -27 -6
-5 -22 -17 -34 -25 -42 -28 -437 -327 -450 -340 -3 -3 -50 -41 -105 -84 -96
-76 -325 -264 -335 -276 -3 -3 -66 -57 -140 -121 -74 -64 -149 -129 -166 -145
-17 -16 -53 -49 -80 -72 -255 -227 -755 -725 -1004 -1002 -47 -51 -98 -108
-114 -124 -38 -41 -294 -339 -382 -446 -468 -567 -913 -1194 -1286 -1810 -80
-132 -298 -509 -298 -515 0 -2 -17 -34 -38 -72 -89 -157 -412 -791 -412 -807
0 -2 -22 -50 -49 -107 -26 -57 -72 -158 -101 -224 -29 -66 -61 -139 -72 -163
-41 -93 -209 -517 -268 -677 -34 -93 -66 -179 -71 -190 -14 -31 -184 -547
-222 -675 -79 -259 -214 -755 -242 -890 -11 -50 -68 -305 -80 -355 -7 -33 -23
-107 -34 -165 -11 -58 -22 -116 -25 -130 -21 -109 -47 -251 -52 -280 -6 -38
-9 -56 -18 -110 -14 -83 -17 -97 -21 -130 -3 -19 -7 -48 -10 -65 -3 -16 -7
-48 -10 -70 -4 -22 -8 -51 -10 -65 -5 -24 -21 -146 -31 -225 -2 -22 -7 -51 -9
-65 -2 -14 -7 -54 -10 -90 -4 -36 -8 -76 -10 -90 -2 -14 -6 -52 -10 -85 -3
-33 -10 -103 -15 -155 -5 -52 -12 -126 -15 -165 -3 -38 -7 -92 -10 -120 -26
-315 -29 -412 -14 -416 12 -4 5578 -4 5601 0 6 1 22 68 32 143 3 21 17 90 31
155 131 603 364 1173 693 1693 271 427 624 837 1001 1160 35 30 69 60 75 65
82 74 317 247 476 350 74 48 147 96 162 106 15 11 29 19 31 19 2 0 44 23 93
51 77 45 351 184 439 224 284 128 617 240 950 320 61 14 125 28 144 31 18 3
43 8 55 10 82 17 254 44 341 54 50 5 108 12 130 15 216 25 775 25 980 1 58 -7
160 -19 185 -21 14 -1 39 -5 55 -8 17 -4 50 -9 75 -12 25 -2 70 -9 100 -15 30
-6 71 -13 90 -16 19 -3 91 -19 160 -35 69 -17 132 -32 141 -34 220 -47 645
-201 929 -337 146 -70 421 -215 430 -228 3 -4 28 -19 55 -35 74 -41 274 -176
405 -274 483 -361 938 -846 1254 -1338 67 -104 57 -105 126 7 19 30 37 57 40
60 3 3 25 34 49 70 41 60 208 282 249 331 41 50 57 68 115 134 238 269 503
514 792 732 112 84 284 203 330 229 11 6 70 42 130 79 522 321 1206 569 1843
669 55 9 178 25 227 31 28 3 70 7 95 10 220 26 727 26 980 -1 109 -11 147 -15
182 -20 21 -3 51 -7 68 -9 17 -2 43 -6 58 -9 15 -3 45 -8 67 -11 82 -12 286
-56 436 -94 590 -151 1181 -426 1692 -789 99 -70 361 -272 377 -291 3 -3 48
-44 100 -91 210 -187 382 -370 608 -645 10 -11 54 -70 98 -130 395 -533 684
-1134 854 -1778 17 -64 33 -125 35 -135 1 -9 11 -53 20 -97 10 -44 19 -87 20
-95 1 -8 5 -31 9 -50 3 -19 8 -46 10 -60 2 -14 7 -41 11 -60 l6 -35 2807 0
2807 1 -1 79 c-1 102 -13 275 -39 575 -8 87 -15 153 -20 180 -2 14 -6 57 -10
95 -3 39 -15 138 -25 220 -11 83 -22 170 -25 195 -3 25 -8 55 -11 68 -2 12 -7
44 -10 70 -3 26 -14 97 -24 157 -10 61 -21 126 -24 145 -10 68 -47 275 -51
290 -2 8 -7 30 -10 48 -3 18 -12 64 -20 102 -8 38 -17 84 -20 102 -3 18 -12
61 -20 96 -8 34 -17 74 -20 90 -3 15 -23 104 -45 197 -22 94 -43 181 -46 195
-3 14 -21 85 -40 159 -20 73 -37 140 -39 150 -5 21 -108 377 -134 464 -12 37
-30 95 -40 130 -147 481 -439 1247 -648 1697 -22 47 -57 123 -79 170 -52 113
-298 606 -375 750 -145 272 -432 759 -598 1015 -270 417 -499 741 -800 1130
-46 61 -86 112 -88 114 -1 2 -60 -12 -130 -32 -125 -35 -278 -75 -318 -83 -11
-2 -31 -6 -45 -9 -14 -3 -36 -7 -50 -10 -14 -3 -36 -7 -50 -10 -47 -10 -75
-15 -140 -26 -36 -5 -76 -12 -90 -14 -14 -2 -47 -7 -75 -10 -27 -3 -61 -8 -75
-10 -23 -4 -74 -10 -175 -20 -243 -24 -854 -25 -970 -1 -11 2 -58 7 -105 10
-47 4 -92 9 -100 11 -8 2 -39 6 -68 9 -30 3 -57 8 -60 10 -4 2 -31 6 -60 10
-189 22 -589 119 -842 203 -101 33 -335 121 -387 144 -23 10 -44 19 -47 19
-18 0 -406 190 -516 253 -651 373 -1160 805 -1612 1367 -86 107 -288 384 -288
395 0 4 -11 21 -24 38 -109 146 -358 617 -458 867 -16 41 -36 89 -43 105 -63
139 -206 607 -250 815 -17 79 -48 239 -50 255 -1 11 -5 34 -8 50 -7 32 -10 53
-26 180 -15 113 -19 156 -26 248 -4 45 -8 100 -10 122 -2 22 -3 50 -4 62 -1
20 -20 28 -173 77 -303 95 -406 125 -768 223 -177 47 -689 167 -770 179 -19 3
-51 9 -70 14 -19 5 -51 12 -70 15 -19 4 -71 13 -115 22 -44 8 -89 16 -100 18
-32 5 -198 34 -225 40 -13 2 -42 7 -65 10 -22 3 -65 10 -95 15 -73 12 -281 41
-395 55 -22 3 -51 7 -65 10 -14 2 -50 7 -80 10 -30 3 -73 8 -95 10 -22 2 -65
7 -95 10 -30 3 -73 8 -95 10 -39 5 -94 10 -207 20 -31 2 -85 7 -120 10 -62 5
-110 8 -303 20 -55 3 -138 9 -185 12 -96 6 -1246 14 -1251 8z"/>
<path d="M39002 36750 c-5 -14 -24 -77 -42 -140 -127 -451 -350 -959 -595
-1352 -25 -40 -45 -76 -45 -81 0 -8 86 -124 101 -137 13 -11 343 -455 464
-625 251 -351 557 -818 809 -1233 47 -78 86 -144 86 -147 0 -3 16 -29 35 -59
19 -30 35 -57 35 -60 0 -3 15 -29 33 -58 19 -29 55 -93 82 -143 26 -49 56
-102 66 -117 11 -14 19 -29 19 -32 0 -3 24 -50 54 -103 185 -334 459 -888 626
-1264 43 -96 87 -195 98 -220 235 -520 529 -1319 748 -2034 50 -161 64 -210
94 -320 5 -16 18 -61 28 -100 36 -127 130 -482 137 -515 2 -8 19 -82 39 -165
52 -212 157 -701 180 -838 3 -15 7 -35 10 -45 3 -9 7 -35 11 -57 3 -22 15 -92
26 -155 12 -63 23 -124 24 -135 7 -40 37 -221 40 -245 28 -188 45 -303 49
-340 3 -25 8 -54 10 -65 3 -16 12 -89 21 -170 8 -69 17 -145 20 -165 2 -14 7
-54 10 -90 4 -36 9 -72 10 -80 2 -8 6 -55 10 -104 4 -49 8 -96 10 -105 1 -9 6
-55 10 -103 3 -49 8 -101 10 -117 2 -15 6 -73 10 -127 3 -54 8 -121 10 -149 5
-61 15 -222 20 -325 2 -41 8 -147 12 -235 16 -332 8 -1508 -12 -1770 -2 -27
-7 -97 -10 -155 -12 -219 -33 -485 -51 -650 -3 -25 -7 -72 -9 -105 -4 -54 -11
-117 -20 -185 -2 -14 -6 -54 -10 -90 -4 -36 -8 -76 -10 -90 -3 -14 -7 -50 -10
-80 -3 -30 -7 -66 -10 -80 -3 -14 -7 -45 -10 -70 -7 -61 -17 -132 -20 -150 -1
-8 -6 -40 -10 -70 -4 -30 -9 -64 -11 -75 -3 -11 -7 -38 -10 -60 -6 -49 -4 -40
-49 -305 -35 -212 -39 -231 -49 -280 -3 -13 -8 -42 -12 -65 -3 -22 -19 -105
-36 -185 -16 -80 -32 -156 -34 -170 -3 -14 -11 -56 -20 -95 -9 -38 -18 -81
-20 -95 -3 -14 -13 -61 -24 -105 -10 -44 -23 -105 -30 -135 -7 -30 -16 -68
-21 -85 -4 -16 -29 -115 -54 -220 -41 -167 -152 -579 -190 -705 -8 -25 -37
-121 -65 -215 -342 -1137 -869 -2399 -1442 -3455 -69 -127 -101 -183 -128
-230 -16 -28 -30 -53 -30 -55 0 -5 -184 -321 -270 -466 -232 -387 -572 -904
-830 -1262 -91 -126 -172 -239 -180 -251 -57 -83 -544 -710 -587 -754 -7 -7
-29 -34 -50 -60 -21 -26 -40 -49 -43 -52 -3 -3 -25 -30 -50 -60 -25 -30 -47
-57 -50 -60 -3 -3 -30 -34 -60 -70 -30 -36 -57 -67 -60 -70 -3 -3 -52 -59
-110 -125 -57 -66 -109 -125 -115 -131 -5 -6 -48 -53 -95 -105 -301 -330 -721
-759 -1014 -1034 -70 -66 -144 -136 -165 -155 -20 -19 -75 -69 -121 -110 -46
-41 -106 -96 -134 -121 -49 -45 -360 -314 -401 -348 -39 -32 -140 -116 -145
-121 -3 -3 -39 -32 -80 -65 -41 -33 -77 -62 -80 -65 -3 -3 -48 -39 -100 -80
-52 -41 -97 -77 -100 -80 -27 -28 -582 -440 -790 -587 -454 -318 -1068 -713
-1420 -910 -19 -11 -87 -49 -150 -85 -63 -36 -140 -79 -170 -96 -30 -16 -91
-50 -135 -74 -283 -158 -863 -446 -1205 -600 -85 -38 -170 -76 -188 -84 -98
-45 -423 -182 -604 -254 l-208 -83 0 -829 c0 -455 3 -828 6 -828 9 0 323 116
529 195 297 114 684 275 943 391 583 262 1009 473 1587 790 56 30 396 225 530
303 320 187 861 533 1185 758 58 40 112 77 120 83 108 73 660 477 670 490 3 3
21 17 40 30 19 14 42 30 50 37 16 13 188 148 205 160 25 19 271 218 275 223 3
3 37 30 75 61 72 57 323 271 430 365 33 29 69 61 81 71 38 33 156 137 183 162
185 169 300 276 430 400 268 255 820 819 975 997 19 22 52 58 73 80 55 58 429
488 503 577 14 17 41 49 60 72 287 338 834 1055 1060 1390 19 28 36 52 40 55
11 9 436 654 528 801 147 237 432 714 432 724 0 2 19 36 43 77 24 40 46 80 50
88 4 8 18 33 30 55 13 22 42 76 66 120 24 44 51 94 61 110 63 108 390 759 500
995 116 249 120 258 186 407 142 319 308 723 409 993 24 63 48 126 53 140 11
27 21 55 23 68 0 4 5 15 10 25 12 21 70 184 151 422 33 99 64 189 69 200 35
88 314 1019 344 1152 2 10 38 153 80 318 63 250 176 743 191 835 2 14 9 45 14
70 6 25 13 56 15 70 3 14 10 52 16 85 6 33 13 69 15 80 1 11 10 56 18 100 25
134 54 298 61 340 3 22 12 78 20 125 8 47 17 102 20 123 9 65 15 109 30 207
13 93 20 142 30 218 2 20 11 89 20 152 8 63 17 140 20 170 3 30 7 71 10 90 2
19 7 60 10 90 3 30 8 66 10 80 2 14 6 59 10 100 3 41 8 95 10 120 12 123 16
170 20 230 3 36 7 90 10 120 18 207 38 590 51 970 6 201 6 983 0 1170 -14 386
-22 555 -41 825 -3 39 -7 106 -10 150 -3 44 -7 103 -10 130 -8 87 -18 197 -30
330 -7 78 -15 154 -20 185 -2 14 -7 54 -10 90 -3 36 -8 83 -11 105 -3 22 -7
56 -9 75 -2 19 -6 51 -9 70 -3 19 -8 58 -11 85 -2 28 -7 61 -9 75 -2 14 -7 50
-11 80 -9 68 -12 90 -19 137 -3 21 -9 56 -11 78 -3 22 -8 51 -10 65 -3 14 -7
39 -9 55 -3 17 -7 44 -10 60 -3 17 -8 50 -11 75 -3 25 -7 56 -10 70 -3 14 -8
41 -11 60 -3 19 -7 46 -10 60 -2 14 -7 40 -10 59 -3 18 -7 43 -10 55 -2 11
-13 71 -24 131 -11 61 -22 124 -25 140 -3 17 -28 140 -56 275 -28 135 -52 256
-55 270 -3 14 -14 63 -25 110 -12 47 -23 97 -25 113 -8 44 -131 540 -170 682
-77 282 -147 526 -246 845 -11 36 -22 74 -25 85 -2 11 -7 27 -10 35 -3 8 -43
128 -90 265 -79 236 -115 337 -212 600 -48 133 -147 390 -163 425 -17 39 -24
58 -67 165 -215 547 -564 1290 -926 1970 -79 150 -365 656 -380 675 -7 8 -14
20 -16 25 -10 27 -203 345 -308 510 -32 50 -77 122 -102 160 -42 68 -393 594
-457 685 -30 43 -195 273 -226 315 -94 128 -276 372 -283 380 -5 6 -40 51 -78
100 -37 50 -85 110 -104 135 -20 24 -41 51 -48 60 -32 41 -240 299 -267 331
-17 20 -40 47 -51 60 -49 59 -122 146 -143 170 -12 14 -29 34 -36 45 -14 18
-15 18 -24 -6z"/>
<path d="M37559 34242 c-290 -294 -693 -607 -1056 -821 l-72 -42 92 -122 c97
-129 173 -233 244 -332 23 -33 57 -80 75 -105 51 -73 308 -457 374 -560 211
-331 388 -631 603 -1023 419 -762 843 -1740 1127 -2595 51 -155 202 -638 209
-672 2 -8 13 -49 25 -90 64 -222 224 -870 243 -985 3 -16 12 -64 21 -105 16
-71 59 -291 71 -355 23 -132 48 -275 52 -300 2 -16 11 -68 18 -115 20 -118 64
-430 80 -570 8 -71 17 -145 20 -160 1 -8 6 -51 10 -95 4 -44 8 -93 10 -110 2
-16 6 -61 10 -100 3 -38 8 -90 10 -115 2 -25 7 -79 10 -120 3 -41 7 -95 10
-120 2 -25 7 -99 11 -165 3 -66 8 -147 9 -180 25 -450 25 -1325 0 -1715 -2
-30 -6 -100 -9 -155 -3 -55 -8 -125 -11 -155 -2 -30 -7 -93 -11 -140 -3 -47
-7 -101 -9 -120 -2 -19 -6 -69 -10 -110 -3 -41 -8 -86 -10 -100 -2 -14 -6 -59
-10 -100 -4 -41 -8 -86 -10 -100 -2 -14 -6 -50 -10 -80 -5 -52 -16 -140 -31
-255 -3 -27 -8 -57 -9 -66 -2 -9 -6 -40 -10 -70 -7 -58 -8 -67 -25 -174 -12
-69 -16 -99 -24 -152 -5 -38 -15 -94 -31 -183 -8 -41 -17 -93 -20 -115 -12
-74 -17 -100 -37 -195 -10 -52 -21 -106 -23 -120 -2 -14 -11 -59 -20 -100 -39
-176 -46 -206 -50 -230 -35 -185 -219 -893 -295 -1135 -5 -16 -23 -75 -40
-130 -149 -483 -385 -1133 -540 -1490 -10 -22 -30 -69 -45 -105 -15 -36 -36
-83 -46 -105 -9 -22 -35 -80 -57 -130 -117 -263 -345 -734 -455 -940 -24 -44
-67 -125 -97 -180 -214 -403 -544 -946 -828 -1365 -144 -212 -501 -712 -522
-730 -4 -3 -44 -54 -90 -115 -46 -60 -95 -124 -109 -141 -14 -17 -33 -40 -41
-50 -61 -77 -105 -132 -174 -214 -43 -52 -92 -112 -110 -133 -17 -21 -40 -48
-51 -61 -11 -12 -42 -49 -70 -81 -27 -33 -59 -68 -70 -80 -11 -12 -33 -37 -49
-56 -26 -31 -75 -85 -246 -273 -236 -259 -672 -693 -965 -961 -54 -49 -103
-95 -109 -100 -12 -12 -335 -294 -376 -329 -14 -11 -50 -41 -80 -66 -70 -57
-100 -82 -114 -95 -6 -5 -34 -28 -61 -50 -28 -22 -57 -45 -65 -52 -227 -182
-490 -382 -680 -518 -69 -49 -147 -105 -175 -125 -118 -87 -516 -350 -760
-502 -255 -159 -649 -387 -863 -499 -64 -34 -121 -65 -127 -70 -33 -25 -798
-399 -816 -399 -5 0 -9 -367 -9 -850 0 -467 2 -850 5 -850 6 0 105 40 160 65
17 7 100 43 185 80 85 37 193 85 238 106 46 22 85 39 87 39 13 0 721 349 828
408 28 16 90 50 137 74 148 78 277 150 622 349 226 130 611 374 924 585 594
400 1153 828 1724 1320 54 46 136 118 146 128 6 6 44 40 84 76 135 119 315
288 508 475 143 139 468 466 513 516 13 15 72 78 131 140 59 63 115 123 125
135 21 25 162 181 183 203 60 64 427 500 536 637 18 21 69 86 115 144 193 243
549 726 703 955 48 72 93 137 99 145 12 15 142 213 249 380 101 157 244 394
358 590 62 107 127 220 145 250 18 30 52 91 75 135 24 44 59 109 79 145 171
313 417 816 588 1200 35 80 70 159 78 175 7 17 25 59 40 95 15 36 33 79 40 95
46 103 223 553 222 565 0 3 5 16 13 29 18 35 160 432 231 646 60 181 180 562
184 585 0 3 6 21 13 41 7 20 15 45 17 55 2 10 14 53 25 94 12 41 28 98 35 125
8 28 21 77 30 110 10 33 19 67 21 75 2 8 22 87 44 175 23 88 45 178 50 200 5
22 22 97 39 166 27 112 112 510 125 583 3 16 10 54 17 85 6 30 12 64 14 75 4
30 24 144 35 196 5 25 12 61 14 80 3 19 7 44 10 55 2 11 7 45 12 75 4 30 8 57
9 60 1 3 5 30 9 60 5 30 10 62 11 70 4 22 16 101 20 130 2 14 6 43 9 65 3 22
8 60 11 85 4 25 8 56 10 70 2 14 7 49 10 79 4 30 8 62 10 72 2 9 7 50 10 91 4
40 9 87 11 103 4 36 12 106 19 178 3 28 8 68 10 87 2 19 7 69 10 110 3 41 8
95 10 120 2 25 7 79 10 120 3 41 7 98 10 125 2 28 7 104 10 170 4 66 8 136 10
155 26 272 26 1671 0 1910 -2 19 -6 91 -10 160 -3 69 -8 141 -10 160 -2 19 -7
76 -10 125 -3 50 -8 106 -9 125 -2 19 -6 71 -10 115 -4 44 -9 94 -11 110 -2
17 -7 66 -11 110 -3 44 -8 88 -9 97 -2 9 -6 45 -10 80 -3 35 -8 74 -10 88 -3
14 -7 48 -10 75 -5 44 -10 87 -31 250 -3 22 -7 47 -9 55 -2 8 -6 40 -10 71 -3
31 -8 67 -10 80 -3 13 -7 41 -10 64 -3 22 -8 51 -10 65 -8 45 -16 94 -20 125
-4 27 -40 235 -65 370 -17 97 -50 261 -64 326 -8 36 -17 82 -20 103 -3 20 -13
65 -21 99 -8 34 -21 91 -29 127 -38 167 -60 263 -83 355 -14 55 -27 108 -29
118 -9 39 -13 55 -29 112 -9 33 -18 71 -21 85 -2 14 -9 36 -14 50 -5 14 -25
86 -45 160 -97 358 -282 938 -410 1286 -58 157 -76 208 -85 229 -5 11 -36 92
-70 180 -61 159 -243 602 -260 634 -5 9 -34 72 -64 141 -147 339 -403 861
-596 1215 -81 150 -231 417 -256 456 -13 21 -24 41 -24 43 0 3 -22 41 -50 86
-27 45 -50 83 -50 86 0 2 -15 28 -34 57 -18 28 -88 140 -154 247 -109 176
-230 364 -320 497 -17 26 -37 55 -42 63 -66 99 -269 388 -285 407 -5 6 -45 60
-87 120 -110 154 -242 326 -253 329 -6 2 -49 -36 -96 -84z"/>
<path d="M18887 27074 c-1 -1 -55 -5 -119 -8 -65 -4 -128 -9 -140 -11 -13 -2
-45 -6 -73 -9 -62 -6 -115 -14 -181 -27 -28 -5 -64 -12 -80 -15 -83 -14 -295
-70 -419 -110 -247 -80 -546 -216 -724 -328 -22 -15 -43 -26 -45 -26 -21 0
-340 -231 -461 -334 -101 -87 -351 -339 -431 -437 -372 -450 -650 -1021 -760
-1564 -8 -39 -12 -60 -18 -85 -5 -24 -13 -75 -21 -135 -3 -16 -7 -46 -10 -66
-17 -101 -29 -294 -29 -474 0 -149 10 -369 19 -417 3 -12 7 -44 10 -72 18
-179 123 -625 174 -741 5 -11 29 -72 54 -135 71 -181 234 -509 259 -518 4 -2
8 -9 8 -16 0 -30 218 -332 354 -491 72 -85 311 -323 385 -385 29 -25 59 -50
65 -55 37 -33 226 -171 311 -226 160 -105 351 -210 495 -273 36 -16 79 -34 95
-42 31 -14 171 -66 240 -89 92 -31 256 -78 340 -96 166 -36 235 -49 360 -64
33 -4 74 -9 90 -11 62 -8 274 -18 385 -18 888 0 1735 319 2408 908 85 74 286
279 363 371 201 238 375 507 505 780 35 75 64 138 64 140 0 3 9 24 19 48 29
63 86 222 111 307 11 41 25 86 30 100 5 14 12 36 14 50 3 14 10 45 17 70 6 25
12 50 13 57 1 7 5 16 10 20 4 4 394 7 866 8 l860 0 7 -30 c3 -16 8 -34 9 -40
39 -190 193 -619 274 -767 5 -9 30 -56 55 -103 97 -182 223 -375 347 -532 34
-43 64 -80 67 -83 3 -3 23 -26 43 -51 42 -52 247 -261 323 -329 363 -325 792
-575 1255 -732 107 -36 319 -96 365 -103 11 -2 41 -8 66 -14 65 -15 223 -41
289 -47 30 -3 66 -7 80 -10 46 -8 254 -18 370 -18 160 0 350 12 480 29 25 4
59 8 75 10 499 67 1063 288 1505 589 320 219 630 515 867 831 62 82 213 309
213 320 0 3 11 22 23 43 134 213 302 626 371 912 39 161 60 270 76 395 6 44
13 91 16 105 23 130 23 636 0 805 -3 17 -10 68 -16 115 -23 164 -59 328 -124
565 -59 211 -216 565 -353 790 -30 50 -59 99 -66 110 -7 11 -15 22 -18 25 -3
3 -18 24 -32 47 -52 83 -207 281 -304 388 -201 222 -410 404 -648 567 -409
279 -873 473 -1360 567 -99 19 -128 23 -235 36 -30 4 -66 9 -80 11 -58 9 -266
18 -410 17 -201 0 -382 -15 -550 -43 -30 -5 -70 -12 -88 -15 -315 -53 -694
-182 -1009 -345 -128 -66 -357 -200 -373 -219 -3 -3 -25 -20 -50 -36 -25 -16
-47 -32 -50 -35 -3 -3 -32 -25 -65 -50 -56 -41 -81 -61 -109 -85 -129 -111
-180 -158 -280 -260 -200 -203 -364 -414 -519 -670 -119 -195 -255 -484 -313
-664 -8 -25 -19 -55 -24 -66 -10 -23 -18 -50 -65 -228 -18 -71 -36 -132 -40
-135 -3 -3 -392 -6 -865 -7 l-858 0 -32 125 c-159 623 -479 1192 -926 1646
-176 179 -313 295 -521 442 -172 123 -456 279 -649 357 -49 20 -102 42 -119
50 -60 26 -250 86 -379 120 -158 41 -309 71 -461 90 -27 3 -64 8 -80 10 -94
12 -507 27 -518 19z"/>
<path d="M8253 22648 c-4 -7 2 -144 12 -271 2 -29 7 -92 10 -142 4 -49 8 -106
10 -125 2 -19 6 -69 10 -110 7 -81 14 -147 20 -195 2 -16 6 -57 10 -90 12
-112 51 -417 61 -478 3 -20 7 -47 9 -60 5 -38 15 -108 35 -227 10 -63 21 -128
23 -145 6 -37 55 -300 62 -335 3 -14 13 -61 21 -105 9 -44 24 -116 34 -160 10
-45 21 -92 24 -105 7 -37 24 -113 52 -230 14 -58 27 -112 29 -120 2 -8 22 -85
44 -170 270 -1037 637 -2012 1122 -2983 56 -111 111 -220 124 -242 12 -22 46
-84 74 -137 67 -127 86 -161 199 -358 52 -91 103 -181 114 -200 11 -19 33 -54
49 -78 16 -24 29 -45 29 -48 0 -2 12 -23 27 -47 32 -51 78 -123 124 -197 67
-107 327 -497 414 -620 139 -198 412 -564 496 -665 10 -11 53 -65 96 -120 44
-55 86 -107 94 -115 8 -8 34 -40 59 -70 75 -91 219 -260 291 -340 37 -41 77
-86 89 -100 217 -252 776 -814 1090 -1095 36 -32 85 -77 110 -99 97 -90 382
-330 620 -523 117 -96 477 -367 660 -498 218 -156 762 -516 878 -580 9 -5 62
-37 117 -71 94 -58 244 -145 345 -202 25 -14 79 -44 120 -67 140 -79 533 -285
543 -285 4 0 7 1294 7 2875 l0 2875 6825 0 6825 0 0 -2875 c0 -1581 3 -2875 6
-2875 21 0 695 362 766 411 14 11 29 19 33 19 18 0 557 335 822 511 225 150
736 515 789 564 7 5 44 35 84 65 114 87 506 406 584 475 19 17 93 81 170 148
12 10 39 35 61 55 22 20 65 59 95 86 330 298 864 835 1088 1094 11 12 47 53
80 90 559 630 1128 1398 1567 2117 150 247 245 411 378 655 49 91 106 194 126
230 19 36 36 67 36 70 1 3 21 43 45 90 128 249 279 571 430 915 21 48 145 354
167 410 8 22 19 49 24 60 16 40 58 153 104 280 26 72 51 139 56 150 11 27 161
474 163 489 1 6 5 16 8 22 4 6 9 21 12 35 2 13 16 60 30 104 27 87 96 325 121
420 33 124 97 371 100 385 2 8 13 56 25 105 12 50 23 99 26 110 2 11 21 101
43 200 22 99 49 232 61 295 11 63 25 135 30 160 6 25 12 61 15 80 4 19 17 103
31 185 25 152 27 165 39 245 4 25 8 56 10 70 3 14 7 48 10 75 3 28 8 61 10 75
8 51 34 257 40 325 4 39 8 81 10 95 4 30 12 101 21 195 11 124 13 149 19 240
3 50 8 108 10 130 2 22 7 94 10 160 l6 120 -2810 0 -2810 0 -17 -95 c-9 -52
-18 -106 -21 -120 -2 -14 -6 -33 -9 -42 -3 -10 -7 -30 -10 -45 -3 -16 -16 -75
-30 -133 -14 -58 -27 -112 -29 -120 -11 -49 -63 -215 -106 -343 -96 -284 -248
-622 -393 -872 -38 -66 -74 -129 -80 -140 -6 -11 -24 -40 -40 -65 -293 -461
-643 -863 -1056 -1215 -387 -331 -863 -624 -1330 -820 -74 -31 -144 -60 -155
-65 -17 -7 -99 -36 -270 -96 -135 -47 -439 -124 -625 -158 -47 -9 -94 -18
-105 -20 -20 -4 -87 -14 -135 -21 -79 -12 -205 -26 -260 -31 -198 -15 -281
-18 -465 -18 -298 0 -491 13 -730 49 -16 2 -52 7 -80 10 -27 4 -66 10 -85 15
-19 5 -55 12 -80 15 -43 6 -99 18 -240 51 -36 9 -74 18 -86 20 -30 6 -355 103
-379 113 -11 5 -42 17 -70 26 -60 21 -286 110 -335 132 -149 67 -382 185 -492
249 -119 69 -328 200 -353 221 -5 5 -27 19 -48 32 -21 13 -43 28 -50 35 -6 7
-32 26 -57 43 -51 36 -246 191 -341 273 -67 57 -422 409 -474 470 -192 221
-392 489 -495 658 -14 23 -29 42 -35 41 -5 0 -48 -59 -95 -131 -47 -72 -89
-135 -95 -142 -5 -6 -49 -63 -97 -127 -182 -242 -442 -525 -663 -720 -27 -24
-61 -54 -75 -67 -38 -35 -248 -203 -305 -245 -279 -201 -491 -331 -760 -467
-115 -58 -264 -127 -330 -154 -66 -27 -133 -54 -150 -61 -54 -23 -327 -115
-404 -136 -122 -33 -225 -61 -241 -64 -171 -38 -258 -56 -315 -65 -38 -6 -82
-13 -97 -15 -61 -10 -87 -14 -178 -25 -52 -6 -113 -13 -135 -15 -197 -24 -812
-24 -955 -1 -14 2 -54 7 -90 10 -36 4 -78 8 -95 11 -71 9 -131 18 -145 21 -8
2 -35 6 -60 10 -157 21 -498 104 -716 175 -143 46 -357 124 -409 149 -11 5
-67 30 -125 55 -126 55 -428 211 -505 260 -31 19 -58 35 -61 35 -9 0 -319 207
-394 263 -125 95 -131 99 -225 176 -556 457 -1017 1032 -1344 1676 -86 170
-112 226 -186 410 -56 136 -157 431 -181 525 -8 30 -16 62 -18 70 -40 155 -92
394 -111 515 l-6 40 -2805 0 c-1543 0 -2808 -3 -2811 -7z"/>
<path d="M18176 14021 c-2 -3 -4 -1098 -3 -2433 l0 -2427 31 -11 c17 -7 40
-16 51 -21 11 -4 88 -31 170 -59 83 -28 174 -60 203 -70 28 -11 53 -19 55 -18
1 0 58 -17 127 -39 243 -79 678 -203 833 -239 26 -6 46 -11 107 -28 44 -11
247 -59 346 -81 37 -8 350 -74 379 -80 58 -12 351 -63 395 -70 25 -3 63 -10
85 -15 22 -5 63 -11 90 -15 28 -3 57 -8 65 -10 8 -2 35 -6 60 -9 25 -3 54 -8
65 -10 11 -2 63 -9 115 -16 52 -6 106 -13 120 -15 14 -2 48 -7 75 -10 28 -3
66 -8 85 -10 19 -3 60 -7 90 -10 30 -3 69 -8 85 -10 45 -5 144 -15 195 -20 49
-3 183 -15 240 -20 19 -2 85 -7 145 -10 61 -4 135 -8 165 -11 393 -27 1380
-27 1775 1 33 2 107 6 165 10 58 3 121 8 140 10 19 2 78 7 130 10 52 4 103 9
112 10 10 2 53 6 95 10 43 3 89 7 103 10 14 2 50 7 80 10 30 3 66 7 80 9 14 2
54 6 90 10 36 4 76 9 90 11 14 3 45 7 69 10 23 3 55 7 70 9 14 3 62 10 106 16
112 15 137 19 160 24 11 2 41 7 67 10 25 4 95 15 155 26 59 10 124 22 143 25
72 12 295 56 432 86 79 17 154 32 168 35 103 20 570 137 735 184 61 17 117 33
126 35 141 31 1036 327 1050 347 3 5 5 1101 5 2436 l-1 2427 -5258 1 c-2892 0
-5259 -2 -5261 -5z"/>
<path d="M18173 7131 c-1 -445 2 -813 6 -819 6 -10 182 -65 426 -132 83 -23
175 -48 205 -57 30 -8 71 -19 90 -23 19 -5 89 -22 155 -39 261 -67 732 -172
935 -207 14 -3 32 -7 41 -10 15 -4 154 -30 209 -39 14 -2 93 -16 175 -30 83
-14 166 -28 185 -31 19 -3 49 -8 65 -10 17 -3 46 -7 65 -10 19 -2 62 -9 95
-14 33 -5 80 -12 105 -15 25 -3 56 -8 70 -10 14 -2 49 -7 79 -10 30 -4 61 -8
70 -10 9 -1 45 -6 81 -10 36 -3 76 -8 90 -10 14 -2 50 -7 80 -10 30 -3 71 -7
90 -10 19 -2 64 -7 100 -10 105 -10 157 -15 208 -20 49 -5 117 -10 242 -20 41
-3 98 -8 125 -10 28 -3 97 -8 155 -11 58 -3 130 -7 160 -9 225 -13 536 -19
960 -20 544 0 868 10 1265 40 145 11 222 17 255 20 19 2 73 7 120 10 47 3 96
8 110 10 14 2 54 6 90 10 36 3 99 10 140 15 41 5 100 12 130 15 30 3 71 8 90
10 19 3 55 7 80 10 55 6 186 24 220 29 14 3 48 7 75 11 28 3 88 12 135 20 47
8 103 17 125 20 22 3 51 8 65 10 14 2 54 9 90 14 36 6 76 13 90 16 14 3 39 7
55 10 17 3 41 7 55 10 14 3 40 7 57 10 18 3 78 14 133 25 55 11 115 22 133 25
17 4 52 11 77 16 50 12 51 12 165 35 44 8 105 22 135 29 30 8 68 16 83 19 225
40 1261 322 1278 348 9 13 8 1618 -1 1623 -4 2 -38 -7 -76 -20 -62 -22 -515
-164 -539 -170 -5 -1 -17 -5 -25 -8 -8 -3 -42 -12 -75 -21 -33 -8 -177 -47
-320 -86 -143 -38 -272 -72 -286 -75 -14 -3 -91 -20 -170 -39 -80 -19 -156
-37 -169 -40 -14 -2 -69 -14 -124 -26 -108 -24 -127 -28 -171 -36 -16 -3 -50
-10 -75 -15 -25 -6 -58 -13 -75 -15 -16 -3 -41 -7 -55 -10 -14 -3 -36 -8 -50
-10 -14 -3 -63 -12 -110 -21 -47 -8 -94 -16 -105 -18 -11 -1 -60 -10 -110 -18
-49 -9 -112 -19 -140 -22 -27 -4 -57 -8 -65 -10 -8 -2 -35 -7 -60 -10 -25 -3
-72 -10 -105 -15 -33 -5 -82 -12 -110 -15 -27 -4 -61 -8 -75 -11 -14 -2 -63
-8 -110 -14 -47 -6 -101 -12 -120 -15 -31 -4 -118 -13 -190 -20 -14 -1 -54 -5
-90 -9 -36 -4 -85 -9 -110 -11 -92 -10 -285 -26 -365 -30 -27 -1 -95 -6 -150
-10 -452 -34 -1413 -39 -1885 -10 -165 10 -284 17 -345 21 -38 2 -90 6 -115 8
-25 3 -76 8 -115 11 -104 8 -165 14 -315 30 -71 7 -216 24 -270 30 -19 3 -57
7 -85 10 -27 4 -62 8 -77 11 -56 9 -84 13 -138 19 -52 6 -81 10 -140 20 -14 2
-86 14 -160 25 -74 12 -146 23 -160 26 -99 16 -151 26 -190 34 -25 5 -61 12
-80 15 -43 7 -125 22 -210 41 -240 51 -358 76 -380 80 -14 3 -33 7 -42 10 -9
3 -25 7 -35 9 -10 2 -58 13 -108 24 -49 12 -99 24 -111 26 -238 53 -970 265
-1258 365 -33 11 -62 20 -66 20 -4 0 -7 -364 -7 -809z"/>
<path d="M18173 4412 l-1 -809 202 -51 c199 -51 303 -76 526 -127 63 -14 142
-32 175 -40 49 -11 247 -52 340 -71 11 -2 43 -8 70 -14 28 -5 64 -12 80 -15
17 -3 41 -7 55 -10 142 -28 118 -24 305 -55 66 -12 131 -23 145 -26 21 -3 91
-14 253 -40 15 -2 39 -6 55 -8 15 -2 77 -11 137 -20 130 -19 144 -21 300 -41
66 -8 131 -17 145 -19 24 -4 99 -13 185 -21 80 -8 160 -17 175 -20 8 -2 51 -6
95 -9 77 -6 106 -9 240 -22 63 -6 109 -9 240 -19 142 -10 188 -13 300 -20 61
-3 137 -8 170 -10 56 -4 228 -11 495 -21 140 -5 967 -5 1140 0 207 6 451 16
520 21 36 3 108 7 160 10 52 3 127 8 165 10 39 3 106 7 150 10 44 3 96 8 115
10 19 2 69 7 110 10 41 3 98 8 125 11 28 2 70 7 95 9 96 9 148 15 240 25 52 6
115 13 140 15 25 2 61 7 80 9 39 6 92 13 160 21 63 7 132 17 151 20 9 2 40 6
70 10 30 3 65 8 79 10 14 3 39 7 55 9 156 23 504 80 550 89 11 3 42 8 68 11
27 4 59 9 70 12 12 2 47 9 77 15 55 10 63 12 155 29 28 5 61 12 75 15 14 2 72
14 130 26 81 16 511 111 613 135 9 2 25 6 35 8 9 2 126 32 260 65 133 34 244
61 245 61 2 0 4 365 4 810 0 739 -1 810 -16 806 -9 -3 -41 -12 -71 -20 -30 -8
-111 -30 -180 -50 -149 -41 -395 -105 -430 -112 -14 -2 -31 -7 -38 -9 -11 -4
-250 -61 -292 -70 -8 -2 -80 -18 -160 -35 -80 -18 -154 -34 -165 -36 -11 -2
-74 -15 -140 -29 -66 -13 -133 -27 -150 -29 -16 -3 -91 -17 -165 -31 -74 -14
-146 -27 -160 -30 -95 -16 -311 -52 -357 -59 -56 -9 -380 -55 -433 -62 -30 -3
-64 -8 -74 -10 -18 -3 -57 -8 -166 -20 -45 -5 -95 -11 -160 -19 -19 -2 -62 -7
-95 -10 -33 -3 -80 -8 -105 -10 -193 -20 -322 -31 -450 -40 -47 -3 -105 -8
-130 -10 -25 -3 -94 -7 -155 -10 -60 -3 -132 -8 -160 -10 -163 -13 -499 -20
-1005 -20 -575 0 -763 5 -1170 30 -208 13 -258 16 -290 20 -19 2 -78 7 -130
10 -52 3 -106 8 -120 10 -14 2 -52 6 -85 9 -178 16 -331 32 -390 41 -16 2 -59
7 -95 11 -36 3 -76 7 -90 10 -14 2 -79 11 -145 19 -128 16 -172 22 -220 30
-73 12 -91 15 -134 21 -25 3 -122 19 -216 34 -93 16 -186 31 -205 34 -61 10
-94 16 -140 26 -25 5 -61 12 -80 15 -52 8 -102 17 -125 22 -11 3 -29 6 -40 8
-11 2 -40 8 -65 14 -25 5 -61 13 -80 16 -19 4 -39 8 -45 9 -5 1 -37 8 -70 15
-33 7 -87 18 -120 26 -33 7 -114 25 -180 40 -66 15 -174 41 -240 57 -66 16
-127 31 -136 33 -35 7 -383 99 -513 136 -76 21 -140 39 -141 39 -1 0 -2 -364
-2 -808z"/>
</g>
</svg>
